<svg width="71" height="70" viewBox="0 0 71 70" fill="none" xmlns="http://www.w3.org/2000/svg">
<path d="M61.7167 36.283V41.204C61.7167 42.324 60.9047 43.64 59.9037 44.137L58.4267 44.872C58.2237 51.032 53.1627 55.967 46.9467 55.967H44.4827C43.1247 55.967 42.0187 54.868 42.0187 53.503V35.464C42.0187 34.106 43.1177 33 44.4827 33H46.9467C50.1597 33 53.0647 34.323 55.1507 36.451V36.283C55.1507 25.426 46.3167 16.599 35.4667 16.599C24.6097 16.599 15.7827 25.433 15.7827 36.283V36.451C17.8617 34.323 20.7667 33 23.9797 33H26.4437C27.8017 33 28.9077 34.099 28.9077 35.464V53.51C28.9077 54.868 27.8087 55.974 26.4437 55.974H23.9797C17.7707 55.974 12.7097 51.039 12.4997 44.879L11.0227 44.144C10.0217 43.64 9.20972 42.331 9.20972 41.211V36.29C9.20972 21.779 20.9557 10.04 35.4597 10.04C49.9777 10.033 61.7167 21.772 61.7167 36.283Z" fill="#F7F7F7"/>
</svg>
