<svg width="71" height="70" viewBox="0 0 71 70" fill="none" xmlns="http://www.w3.org/2000/svg">
<path d="M25.0623 6.57093C22.2693 6.70393 20.3653 7.15193 18.6923 7.80293C16.9633 8.47493 15.5073 9.37793 14.0513 10.8409C12.5953 12.3039 11.6993 13.7669 11.0343 15.4959C10.3903 17.1689 9.94933 19.0729 9.82333 21.8729C9.69733 24.6659 9.66933 25.5689 9.68333 32.6949C9.69733 39.8209 9.72533 40.7169 9.86533 43.5169C9.99833 46.3099 10.4463 48.2139 11.0973 49.8869C11.7693 51.6159 12.6723 53.0719 14.1353 54.5279C15.5983 55.9839 17.0613 56.8799 18.7903 57.5449C20.4633 58.1889 22.3673 58.6299 25.1603 58.7559C27.9533 58.8819 28.8563 58.9099 35.9823 58.8959C43.1083 58.8819 44.0043 58.8539 46.8043 58.7209C49.6043 58.5879 51.5013 58.1399 53.1673 57.4889C54.8963 56.8169 56.3593 55.9139 57.8083 54.4509C59.2643 52.9879 60.1603 51.5249 60.8253 49.7959C61.4693 48.1229 61.9103 46.2189 62.0363 43.4259C62.1553 40.6259 62.1903 39.7299 62.1763 32.6039C62.1623 25.4779 62.1273 24.5819 61.9943 21.7819C61.8613 18.9819 61.4133 17.0849 60.7623 15.4119C60.0903 13.6829 59.1873 12.2269 57.7243 10.7709C56.2613 9.31493 54.7983 8.41893 53.0693 7.75393C51.3963 7.10993 49.4923 6.66893 46.6993 6.54293C43.9063 6.42393 43.0033 6.38893 35.8773 6.40293C28.7513 6.40293 27.8623 6.43793 25.0623 6.57093ZM25.3703 54.0239C22.8083 53.9119 21.4223 53.4849 20.4983 53.1279C19.2733 52.6519 18.3983 52.0849 17.4743 51.1679C16.5503 50.2509 15.9833 49.3759 15.5073 48.1509C15.1503 47.2269 14.7163 45.8339 14.5973 43.2789C14.4643 40.5139 14.4363 39.6809 14.4223 32.6739C14.4083 25.6669 14.4363 24.8339 14.5553 22.0689C14.6673 19.5139 15.0943 18.1209 15.4513 17.1969C15.9273 15.9719 16.4943 15.0969 17.4113 14.1729C18.3283 13.2489 19.2033 12.6819 20.4283 12.2059C21.3523 11.8419 22.7383 11.4149 25.3003 11.2959C28.0653 11.1629 28.8983 11.1349 35.9053 11.1209C42.9123 11.1069 43.7453 11.1349 46.5103 11.2539C49.0653 11.3659 50.4583 11.7859 51.3823 12.1499C52.6073 12.6259 53.4823 13.1929 54.4063 14.1099C55.3303 15.0269 55.8973 15.9019 56.3733 17.1269C56.7373 18.0509 57.1643 19.4369 57.2833 21.9989C57.4163 24.7639 57.4443 25.5969 57.4583 32.6039C57.4723 39.6109 57.4443 40.4439 57.3253 43.2089C57.2133 45.7709 56.7863 47.1569 56.4293 48.0879C55.9533 49.3129 55.3863 50.1879 54.4693 51.1119C53.5523 52.0359 52.6773 52.6029 51.4523 53.0789C50.5283 53.4429 49.1353 53.8699 46.5803 53.9889C43.8153 54.1219 42.9823 54.1429 35.9753 54.1639C28.9613 54.1779 28.1353 54.1429 25.3703 54.0239ZM46.7693 18.6109C46.7693 20.3539 48.1833 21.7609 49.9263 21.7539C51.6693 21.7539 53.0763 20.3399 53.0693 18.5969C53.0693 16.8539 51.6553 15.4469 49.9123 15.4539C48.1693 15.4539 46.7623 16.8679 46.7693 18.6109ZM22.4583 32.6669C22.4723 40.1149 28.5203 46.1349 35.9613 46.1209C43.4023 46.1069 49.4293 40.0589 49.4153 32.6109C49.4013 25.1629 43.3533 19.1429 35.9053 19.1569C28.4643 19.1779 22.4443 25.2189 22.4583 32.6669ZM27.1833 32.6529C27.1763 27.8229 31.0823 23.8959 35.9193 23.8819C40.7493 23.8749 44.6763 27.7809 44.6903 32.6179C44.6973 37.4479 40.7913 41.3749 35.9543 41.3889C31.1173 41.3959 27.1903 37.4899 27.1833 32.6529Z" fill="#F7F7F7"/>
</svg>
