<svg width="71" height="70" viewBox="0 0 71 70" fill="none" xmlns="http://www.w3.org/2000/svg">
<path d="M60.551 20.365C59.949 18.104 58.171 16.326 55.91 15.724C51.815 14.625 35.4 14.625 35.4 14.625C35.4 14.625 18.985 14.625 14.89 15.724C12.629 16.326 10.851 18.104 10.249 20.365C9.15002 24.46 9.15002 33 9.15002 33C9.15002 33 9.15002 41.54 10.249 45.635C10.851 47.896 12.629 49.674 14.89 50.276C18.985 51.375 35.4 51.375 35.4 51.375C35.4 51.375 51.815 51.375 55.91 50.276C58.171 49.674 59.949 47.896 60.551 45.635C61.65 41.54 61.65 33 61.65 33C61.65 33 61.65 24.46 60.551 20.365ZM30.15 40.875V25.125L43.786 33L30.15 40.875Z" fill="#F7F7F7"/>
</svg>
